<?xml version="1.0" standalone="no"?>
<!DOCTYPE svg PUBLIC "-//W3C//DTD SVG 20010904//EN"
 "http://www.w3.org/TR/2001/REC-SVG-20010904/DTD/svg10.dtd">
<svg version="1.0" xmlns="http://www.w3.org/2000/svg"
 width="512.000000pt" height="512.000000pt" viewBox="0 0 512.000000 512.000000"
 preserveAspectRatio="xMidYMid meet">
<metadata>
Created by potrace 1.14, written by Peter Selinger 2001-2017
</metadata>
<g transform="translate(0.000000,512.000000) scale(0.100000,-0.100000)"
fill="#000000" stroke="none">
<path d="M240 4887 c0 -203 2 -236 17 -257 18 -27 53 -57 87 -77 29 -17 3903
-19 3974 -2 26 6 94 34 152 61 93 45 115 61 195 142 55 56 102 114 122 151 32
62 73 173 73 200 0 13 -242 15 -2310 15 l-2310 0 0 -233z"/>
<path d="M1316 4379 c-43 -50 -35 -85 30 -130 25 -17 44 -38 44 -48 0 -38 -50
-55 -112 -37 -24 7 -28 5 -28 -13 0 -31 67 -49 116 -30 87 33 95 106 18 160
-68 47 -53 97 26 86 43 -6 59 5 40 28 -8 9 -31 15 -60 15 -42 0 -52 -4 -74
-31z"/>
<path d="M1490 4393 c1 -54 41 -267 52 -275 28 -17 36 -8 105 117 102 185 98
175 69 175 -20 0 -31 -14 -66 -82 -23 -46 -52 -99 -64 -118 l-21 -35 -15 115
c-14 106 -17 115 -38 118 -16 3 -22 -2 -22 -15z"/>
<path d="M1776 4393 c-5 -17 -56 -261 -56 -269 0 -2 36 -4 80 -4 73 0 80 2 80
20 0 16 -8 19 -53 22 l-53 3 9 43 c8 42 8 42 53 42 37 0 44 3 44 20 0 17 -7
20 -41 20 -38 0 -41 2 -35 23 3 12 6 30 6 40 0 13 8 17 35 17 28 0 35 4 35 20
0 17 -7 20 -49 20 -39 0 -51 -4 -55 -17z"/>
<path d="M1995 4398 c-2 -7 -13 -65 -25 -128 -11 -63 -23 -123 -26 -132 -5
-16 3 -18 75 -18 74 0 81 2 81 20 0 17 -7 20 -50 20 -59 0 -57 -7 -30 125 11
53 20 103 20 111 0 17 -39 19 -45 2z"/>
<path d="M2117 4396 c-8 -20 2 -26 45 -26 35 0 38 -2 33 -22 -26 -110 -44
-223 -37 -230 24 -24 39 7 62 127 l23 124 46 3 c34 2 47 7 49 21 3 15 -7 17
-106 17 -85 0 -111 -3 -115 -14z"/>
<path d="M2375 4398 c-6 -16 -55 -257 -55 -269 0 -5 36 -9 80 -9 73 0 80 2 80
20 0 18 -7 20 -56 20 -48 0 -55 2 -51 18 3 9 8 29 11 45 6 24 10 27 51 27 38
0 45 3 45 20 0 17 -7 20 -41 20 -41 0 -41 0 -35 31 3 17 6 35 6 40 0 5 16 9
35 9 28 0 35 4 35 20 0 17 -7 20 -50 20 -31 0 -52 -5 -55 -12z"/>
<path d="M2641 4393 c-5 -11 -17 -59 -26 -109 -30 -163 -30 -161 -7 -168 21
-7 102 8 132 24 26 14 33 55 16 95 -11 26 -13 43 -6 61 15 37 12 50 -12 78
-31 34 -83 44 -97 19z m69 -62 c0 -26 -14 -41 -41 -41 -5 0 -9 16 -9 35 0 31
3 35 25 35 21 0 25 -5 25 -29z m10 -113 c10 -28 -19 -58 -56 -58 -25 0 -29 14
-18 58 5 16 14 22 35 22 21 0 32 -6 39 -22z"/>
<path d="M2849 4371 c-112 -107 -66 -284 65 -249 37 10 64 34 86 78 42 84 30
164 -29 194 -48 26 -78 20 -122 -23z m102 -12 c48 -25 43 -108 -10 -168 -50
-56 -98 -44 -108 27 -4 30 0 48 20 80 22 34 61 72 75 72 2 0 12 -5 23 -11z"/>
<path d="M3033 4389 c-13 -13 2 -43 41 -87 18 -20 21 -38 22 -110 1 -79 2 -87
20 -87 17 0 19 9 22 80 2 44 6 82 10 85 4 3 24 27 46 53 37 46 38 50 21 65
-16 16 -18 15 -38 -12 -57 -75 -50 -73 -82 -22 -30 47 -43 54 -62 35z"/>
<path d="M700 3135 l0 -205 -209 0 c-165 0 -211 -3 -220 -14 -8 -9 -11 -85 -9
-252 l3 -239 217 -3 218 -2 2 -203 3 -202 235 0 235 0 3 202 2 203 213 2 212
3 0 250 0 250 -212 3 -213 2 0 189 c0 104 -3 196 -6 205 -5 14 -36 16 -240 16
l-234 0 0 -205z"/>
<path d="M4454 3286 c-100 -32 -190 -125 -220 -225 -22 -74 -15 -182 16 -247
31 -63 101 -133 165 -164 42 -21 64 -25 145 -25 113 0 167 21 240 95 74 73 95
127 95 240 0 81 -4 103 -25 145 -31 64 -101 134 -165 165 -60 29 -187 37 -251
16z"/>
<path d="M3554 2886 c-100 -32 -190 -125 -220 -225 -22 -74 -15 -182 16 -247
31 -63 101 -133 165 -164 42 -21 64 -25 145 -25 113 0 167 21 240 95 74 73 95
127 95 240 0 81 -4 103 -25 145 -31 64 -101 134 -165 165 -60 29 -187 37 -251
16z"/>
<path d="M4802 2438 c-28 -18 -52 -37 -52 -42 0 -6 12 -27 26 -48 28 -40 60
-53 50 -20 -9 27 55 62 79 42 11 -9 19 -10 26 -3 12 12 -45 103 -64 103 -7 0
-36 -15 -65 -32z m63 -16 c0 -7 -13 -21 -30 -32 -41 -27 -56 -4 -17 27 28 24
47 25 47 5z"/>
<path d="M3903 2023 c-24 -16 -43 -35 -43 -44 0 -22 68 -99 88 -99 24 0 72 51
72 76 0 12 -6 29 -14 36 -8 8 -15 23 -18 34 -5 29 -38 27 -85 -3z m48 -35
c-24 -18 -51 -24 -51 -10 0 12 53 41 64 35 5 -4 -1 -14 -13 -25z m39 -28 c0
-14 -49 -44 -58 -36 -4 4 4 16 18 26 28 22 40 25 40 10z"/>
<path d="M1773 1431 c-142 -71 -265 -136 -272 -145 -31 -37 11 -126 58 -126
17 0 530 259 557 281 19 15 18 69 -2 97 -29 42 -66 30 -341 -107z"/>
<path d="M2693 1431 c-142 -71 -265 -136 -272 -145 -31 -37 11 -126 58 -126
17 0 530 259 557 281 19 15 18 69 -2 97 -29 42 -66 30 -341 -107z"/>
<path d="M4603 1528 c-45 -49 -37 -89 38 -200 22 -32 39 -61 39 -64 0 -3 25
-47 57 -97 31 -51 63 -105 71 -121 8 -16 32 -55 54 -87 21 -32 38 -60 38 -63
0 -13 63 -96 73 -97 43 -4 56 7 67 56 10 44 -2 76 -60 166 -22 34 -40 66 -40
70 0 4 -23 45 -52 91 -28 46 -58 97 -66 113 -9 17 -31 52 -49 79 -18 27 -41
64 -49 83 -21 42 -67 93 -86 93 -8 0 -24 -10 -35 -22z"/>
<path d="M4333 1388 c-45 -49 -37 -89 38 -200 22 -32 39 -61 39 -64 0 -3 25
-47 57 -97 31 -51 63 -105 71 -121 8 -16 32 -55 54 -87 21 -32 38 -60 38 -63
0 -13 63 -96 73 -97 43 -4 56 7 67 56 10 44 -2 76 -60 166 -22 34 -40 66 -40
70 0 4 -23 45 -52 91 -28 46 -58 97 -66 113 -9 17 -31 52 -49 79 -18 27 -41
64 -49 83 -21 42 -67 93 -86 93 -8 0 -24 -10 -35 -22z"/>
<path d="M4063 1218 c-45 -49 -37 -89 38 -200 22 -32 39 -61 39 -64 0 -3 25
-47 57 -97 31 -51 63 -105 71 -121 8 -16 32 -55 54 -87 21 -32 38 -60 38 -63
0 -13 63 -96 73 -97 43 -4 56 7 67 56 10 44 -2 76 -60 166 -22 34 -40 66 -40
70 0 4 -23 45 -52 91 -28 46 -58 97 -66 113 -9 17 -31 52 -49 79 -18 27 -41
64 -49 83 -21 42 -67 93 -86 93 -8 0 -24 -10 -35 -22z"/>
<path d="M3793 1078 c-45 -49 -37 -89 38 -200 22 -32 39 -61 39 -64 0 -3 25
-47 57 -97 31 -51 63 -105 71 -121 8 -16 32 -55 54 -87 21 -32 38 -60 38 -63
0 -13 63 -96 73 -97 43 -4 56 7 67 56 10 44 -2 76 -60 166 -22 34 -40 66 -40
70 0 4 -23 45 -52 91 -28 46 -58 97 -66 113 -9 17 -31 52 -49 79 -18 27 -41
64 -49 83 -21 42 -67 93 -86 93 -8 0 -24 -10 -35 -22z"/>
<path d="M3528 915 c-47 -41 -39 -67 73 -253 56 -92 111 -183 122 -202 11 -19
35 -58 54 -87 18 -28 33 -54 33 -57 0 -9 73 -120 85 -128 30 -22 85 27 85 74
0 34 -20 73 -153 293 -33 55 -67 114 -75 130 -8 17 -27 48 -42 70 -15 22 -44
69 -65 105 -54 91 -69 98 -117 55z"/>
<path d="M3232 757 c-45 -48 -34 -77 115 -299 290 -431 277 -413 307 -411 42
3 56 20 56 68 0 50 -27 96 -248 426 -170 254 -183 266 -230 216z"/>
</g>
</svg>
